<svg width="235" height="43" viewBox="0 0 235 43" fill="none" xmlns="http://www.w3.org/2000/svg">
<g clip-path="url(#clip0_151_1553)">
<path d="M4.5391 6.37938C3.63128 6.55782 2.85963 6.69165 2.31494 6.82547C1.72486 6.9593 1.45251 7.04852 1.45251 7.09313L0 1.9631C0.090782 1.9631 0.499301 1.87389 1.36173 1.65084C2.17877 1.4278 3.26815 1.20475 4.5391 0.981709C5.85544 0.758664 7.30795 0.53562 8.98741 0.312575C10.6669 0.13414 12.3463 0.0449219 14.1166 0.0449219C20.1536 0.0449219 24.9197 0.981708 28.3694 2.89989C30.1396 3.88129 31.5013 5.08573 32.4092 6.51321C33.317 7.89609 33.7709 9.4574 33.7709 11.1079C33.7709 12.5354 33.4078 13.9183 32.7269 15.3012C32.046 16.684 31.002 17.9777 29.6857 19.2267C28.3694 20.4312 26.7353 21.5464 24.7835 22.5278C22.8317 23.5092 20.6529 24.3122 18.1564 24.8921C18.5195 25.4274 19.0188 25.9627 19.6543 26.5426C20.2898 27.1225 21.1976 27.6578 22.3778 28.1485C23.5579 28.6392 24.965 29.0407 26.7353 29.353C28.4601 29.6652 30.5935 29.8437 33.09 29.8437V35.1075C29.4587 35.1075 26.4176 34.7952 23.9664 34.1707C21.5153 33.5462 19.5181 32.7432 17.9748 31.8064C16.4315 30.8697 15.2514 29.8437 14.4343 28.773C13.6173 27.7024 13.0272 26.6764 12.7095 25.7842C12.0286 25.8735 11.3931 25.9181 10.7577 25.9181C10.1222 25.9627 9.44133 25.9627 8.71507 25.9627C8.80585 27.2563 8.98741 28.55 9.25976 29.8437C9.48672 31.1373 9.84984 32.3418 10.2584 33.457L5.17457 35.1967C4.31214 32.6986 3.72206 30.0667 3.44971 27.301C3.17737 24.4906 3.08659 21.8141 3.17737 19.1375C3.26815 16.5056 3.44971 14.0521 3.76745 11.8217C3.99441 9.54661 4.26675 7.76226 4.5391 6.37938ZM25.7367 7.49461C25.2828 7.27156 24.7381 7.00391 24.0572 6.73625C23.3764 6.4686 22.6047 6.24556 21.6515 6.02251C20.6983 5.79947 19.6089 5.66564 18.3833 5.48721C17.1578 5.35338 15.7053 5.26416 14.162 5.26416C13.4811 5.26416 12.8456 5.26416 12.2102 5.30877C11.5747 5.35338 10.9392 5.39799 10.3038 5.4426C10.213 5.84408 10.0768 6.55782 9.89523 7.49461C9.71367 8.43139 9.53211 9.59122 9.35054 10.9295C9.16898 12.2678 8.98742 13.7845 8.85124 15.435C8.71507 17.0855 8.62429 18.7807 8.5789 20.565C11.7563 20.565 14.6159 20.2527 17.1124 19.6282C19.6089 19.0037 21.6969 18.2007 23.3764 17.264C25.0558 16.3272 26.3268 15.3012 27.2346 14.1413C28.097 13.0261 28.5509 11.9555 28.5509 11.0187C28.5509 10.1711 28.2332 9.4574 27.6431 8.87748C26.9169 8.34217 26.3268 7.89609 25.7367 7.49461Z" fill="#8028FF"/>
<path d="M67.6326 19.4048C67.0879 20.0739 66.2708 20.9215 65.1361 21.8583C64.0013 22.7951 62.5034 23.6873 60.597 24.4456C58.6905 25.204 56.3756 25.7839 53.6068 26.1854C50.8379 26.5868 47.5697 26.5422 43.8023 26.0961C44.8009 27.5236 46.2534 28.7281 48.0691 29.6202C49.8847 30.5124 52.245 30.9585 55.1047 30.9585C56.9203 30.9585 58.509 30.6909 59.8707 30.1109C61.2324 29.531 62.3672 28.9065 63.275 28.2374C64.1829 27.5682 64.8637 26.9437 65.363 26.3638C65.8169 25.7839 66.0893 25.4716 66.1347 25.3824L70.7192 28.1928C70.6284 28.282 70.3106 28.7281 69.6298 29.5756C68.9943 30.4232 67.9957 31.36 66.7247 32.386C65.4084 33.3674 63.8197 34.3042 61.8679 35.1071C59.9161 35.9101 57.6919 36.3116 55.15 36.3116C51.9273 36.3116 49.113 35.8209 46.7527 34.8395C44.3924 33.8581 42.4406 32.5644 40.8973 31.0031C39.354 29.3972 38.2192 27.6128 37.4929 25.5608C36.7667 23.5088 36.4036 21.4568 36.4036 19.3602C36.4036 16.9959 36.8121 14.6317 37.6745 12.3566C38.5369 10.0816 39.7171 8.02954 41.3058 6.24519C43.076 4.19318 45.164 2.67648 47.5244 1.60587C49.8847 0.535253 52.4266 0.0445557 55.15 0.0445557C58.3728 0.0445557 61.2324 0.66908 63.6836 1.96274C66.1347 3.2564 67.9503 5.04075 69.0397 7.36041C70.0383 9.3232 70.4468 11.3752 70.1745 13.4718C69.9021 15.5238 69.0851 17.5312 67.6326 19.4048ZM41.8505 20.4308C44.3924 20.8323 46.7527 21.0553 49.0223 21.0553C51.2464 21.0553 53.3344 20.9215 55.15 20.52C57.0111 20.1632 58.5998 19.6279 60.0069 18.8695C61.414 18.1558 62.5488 17.219 63.3658 16.1484C64.1829 15.1224 64.6368 14.0071 64.7729 12.8473C64.9091 11.6875 64.7275 10.6169 64.2282 9.54625C63.5474 8.16337 62.3672 7.09276 60.7785 6.33441C59.1898 5.57606 57.2834 5.17458 55.1047 5.17458C53.8791 5.17458 52.7443 5.3084 51.7457 5.57606C50.7471 5.84371 49.8393 6.20058 49.0223 6.60206C48.2052 7.00354 47.5244 7.49424 46.8889 7.98494C46.2534 8.52024 45.7541 9.01094 45.3456 9.50164C44.1654 10.7953 43.303 12.312 42.6675 14.0071C42.032 15.7023 41.7597 17.442 41.7597 19.1818V20.4308H41.8505Z" fill="#8028FF"/>
<path d="M110.936 19.1372C111.843 19.048 112.706 18.9142 113.523 18.7358C114.34 18.6019 115.066 18.4235 115.702 18.2897C116.337 18.1558 116.973 17.9328 117.744 17.6205L119.651 22.5721C119.56 22.5721 119.242 22.6613 118.697 22.8398C118.153 23.0182 117.381 23.2413 116.473 23.4643C115.565 23.6873 114.476 23.9104 113.25 24.1334C112.025 24.3119 110.799 24.4011 109.483 24.4011C108.938 25.9624 108.303 27.4345 107.577 28.8174C106.85 30.2002 106.033 31.4493 105.08 32.5199C104.172 33.5905 103.174 34.4381 102.084 35.0626C100.995 35.6871 99.8602 35.9994 98.5892 35.9994C96.7282 35.9994 95.0941 35.2856 93.7324 33.8582C93.0515 33.1444 92.416 32.2522 91.9167 31.1816C91.4174 30.111 90.9635 28.9512 90.555 27.7021C90.1011 28.9512 89.6018 30.0664 89.0117 31.137C88.467 32.163 87.8315 33.0552 87.1053 33.8136C86.4244 34.5719 85.6528 35.1518 84.7904 35.5533C83.9279 35.9994 83.0201 36.1778 82.0215 36.1778C81.3406 36.1778 80.5236 35.9994 79.6158 35.6425C78.708 35.2856 77.8455 34.4827 76.9831 33.2782C76.2569 32.2969 75.6214 31.0478 75.1221 29.5311C74.6228 28.0144 74.2143 26.3639 73.8965 24.5349C73.5788 22.7059 73.4426 20.7878 73.3518 18.7358C73.3064 16.6837 73.3518 14.5871 73.488 12.4905C73.6242 10.3939 73.9419 8.29728 74.3504 6.28988C74.7589 4.23787 75.2582 2.31969 75.8937 0.490723L80.9321 2.23047C80.0697 4.59474 79.4796 7.13745 79.1619 9.81398C78.7987 12.4905 78.6626 15.0778 78.708 17.6205C78.7534 20.1632 78.9349 22.4829 79.3434 24.5795C79.7066 26.6761 80.2513 28.3713 80.9775 29.5757C81.2045 30.0664 81.4768 30.4233 81.7038 30.6017C81.8399 30.6909 81.9307 30.7802 82.0215 30.8248C82.7478 30.8248 83.474 30.2002 84.1549 28.9958C84.8357 27.7914 85.4712 26.0962 86.0613 23.9996C86.6514 21.903 87.1507 19.4495 87.5592 16.5945C87.9677 13.7842 88.2855 10.7508 88.467 7.53893V6.24527H88.5124C88.5578 5.44231 88.5578 4.63935 88.6032 3.881C88.6032 3.07804 88.6486 2.27508 88.6486 1.42751H94.0047C94.0047 2.27508 94.0047 3.25647 93.9593 4.4163C93.9593 5.57613 93.9139 6.86979 93.8232 8.25267C93.7778 10.1708 93.8232 12.2229 93.9593 14.4533C94.0955 16.6837 94.2771 18.8696 94.5494 20.9662C94.8218 23.0628 95.2303 24.9364 95.7296 26.5869C96.2289 28.2821 96.8644 29.4865 97.5906 30.2448C97.8176 30.4679 98.0445 30.6463 98.1807 30.6463C98.3169 30.6909 98.453 30.6909 98.5438 30.6909C99.1339 30.6909 99.9056 30.2002 100.813 29.2635C101.721 28.3267 102.629 26.81 103.537 24.758C103.628 24.5349 103.718 24.2673 103.809 24.0442C103.9 23.8212 103.991 23.5981 104.082 23.3305C102.538 22.5275 101.267 21.3677 100.223 19.851C99.4063 18.6911 98.8162 17.3975 98.4077 15.9254C97.9991 14.4533 97.8176 12.892 97.8176 11.2415C97.8176 9.72476 97.9991 8.34189 98.3623 7.04823C98.7254 5.75457 99.1793 4.68396 99.8148 3.74717C100.45 2.85499 101.177 2.14125 102.039 1.60594C102.901 1.11525 103.855 0.847594 104.853 0.847594C107.395 0.847594 109.301 2.14125 110.482 4.68396C111.344 6.4237 111.753 8.74337 111.753 11.5537C111.843 13.8288 111.571 16.3269 110.936 19.1372ZM105.761 18.0666C105.988 16.9514 106.17 15.8808 106.306 14.8102C106.396 13.7396 106.442 12.7136 106.442 11.6876C106.442 9.81398 106.26 8.47571 105.943 7.58353C105.625 6.69136 105.262 6.24527 104.989 6.24527C104.762 6.24527 104.445 6.69136 104.036 7.53893C103.582 8.38649 103.401 9.68015 103.401 11.3307C103.401 12.4459 103.537 13.4719 103.809 14.4533C104.082 15.4347 104.445 16.2823 104.944 16.996C105.08 17.3975 105.398 17.7544 105.761 18.0666Z" fill="#8028FF"/>
<path d="M125.461 34.7949C123.463 34.7949 121.739 34.5273 120.286 33.992C118.834 33.4567 117.608 32.7429 116.7 31.8954C115.747 31.0478 115.066 30.0664 114.612 28.9512C114.158 27.8359 113.931 26.7207 113.931 25.6055C113.931 24.3118 114.204 23.0628 114.703 21.7691C115.248 20.4755 115.974 19.3156 116.973 18.3343C117.971 17.3529 119.197 16.5053 120.649 15.8808C122.102 15.2562 123.69 14.944 125.506 14.944C127.73 14.944 129.818 15.2116 131.815 15.7915C133.813 16.3269 135.583 16.996 137.217 17.7989C138.851 18.6019 140.258 19.4049 141.438 20.2524C142.618 21.1 143.572 21.8137 144.298 22.3937C144.207 21.0554 144.116 19.6725 143.98 18.2896C143.844 16.9068 143.617 15.6131 143.299 14.3195C142.982 13.0704 142.573 11.9106 142.074 10.7954C141.574 9.72474 140.984 8.78795 140.304 7.98499C138.806 6.20063 136.763 5.30846 134.13 5.30846C132.814 5.30846 131.679 5.57611 130.771 6.06681C129.864 6.60212 129.092 7.13742 128.547 7.76195C127.957 8.38647 127.549 8.96639 127.322 9.50169C127.095 10.037 126.913 10.3047 126.913 10.3493L121.875 8.69873C121.875 8.60952 121.966 8.38647 122.147 7.94038C122.329 7.49429 122.646 6.95899 123.055 6.28985C123.463 5.66533 123.963 4.95159 124.598 4.23784C125.234 3.47949 126.005 2.81036 126.868 2.18584C127.776 1.56131 128.82 1.026 130.045 0.624524C131.271 0.223044 132.632 0 134.176 0C138.443 0 141.892 1.5167 144.434 4.55011C145.75 6.06681 146.794 7.85116 147.566 9.94778C148.338 12.0444 148.882 14.1856 149.2 16.3715C149.518 18.5573 149.699 20.7877 149.745 22.9736C149.745 25.1594 149.699 27.1222 149.609 28.9066C149.518 30.6463 149.382 32.1184 149.2 33.2336C149.064 34.3935 148.928 35.018 148.928 35.1518L143.572 34.3488C143.662 33.7689 143.708 33.0998 143.844 32.2968C143.935 31.5385 144.026 30.6463 144.116 29.7541C143.163 30.334 142.074 30.914 140.848 31.5385C139.623 32.163 138.216 32.6983 136.672 33.189C135.129 33.6797 133.404 34.0812 131.543 34.3934C129.637 34.6611 127.639 34.7949 125.461 34.7949ZM125.461 20.1632C124.507 20.1632 123.645 20.3417 122.873 20.6539C122.102 20.9662 121.421 21.4123 120.922 21.903C120.377 22.4383 119.968 23.0182 119.696 23.6427C119.424 24.2672 119.287 24.9364 119.287 25.5609C119.287 26.8099 119.832 27.7467 120.876 28.4605C121.966 29.1296 123.463 29.4865 125.461 29.4865C128.774 29.4865 131.679 29.085 134.13 28.3266C136.581 27.5683 138.624 26.7207 140.167 25.8285C139.532 25.2932 138.715 24.7133 137.716 24.0888C136.718 23.4197 135.583 22.7951 134.312 22.2152C133.041 21.6353 131.634 21.1446 130.136 20.6985C128.683 20.3863 127.14 20.1632 125.461 20.1632Z" fill="#8028FF"/>
<path d="M175.618 33.7243C176.162 34.5273 176.707 35.2856 177.343 35.9994C177.978 36.7131 178.659 37.3822 179.431 37.9622L176.208 42.2C175.028 41.3524 173.984 40.371 173.076 39.2558C172.168 38.1406 171.351 37.0254 170.625 35.9101C170.125 35.9994 169.671 36.0886 169.172 36.1778C168.718 36.267 168.219 36.267 167.72 36.267C165.586 36.267 163.589 35.7763 161.683 34.8395C159.822 33.9027 158.142 32.6091 156.78 30.914C155.373 29.2634 154.284 27.3452 153.467 25.1148C152.65 22.929 152.241 20.5647 152.241 18.0666C152.241 15.5685 152.65 13.2488 153.467 11.0184C154.284 8.83256 155.373 6.86977 156.78 5.26385C158.188 3.61332 159.822 2.31966 161.683 1.38288C163.634 0.490698 165.677 0 167.81 0C169.944 0 171.941 0.490698 173.847 1.42748C175.708 2.36427 177.343 3.65793 178.75 5.30846C180.157 6.95899 181.246 8.87717 182.063 11.063C182.88 13.2488 183.289 15.6131 183.289 18.1112C183.289 21.4569 182.608 24.4903 181.201 27.256C179.794 29.9772 177.978 32.1184 175.618 33.7243ZM168.264 30.914C167.765 29.6649 167.402 28.6389 167.175 27.7913C166.948 26.9438 166.812 26.4977 166.766 26.4085L171.986 25.2486C172.032 25.2932 172.123 25.6501 172.35 26.3192C172.531 26.9884 172.849 27.8359 173.212 28.8619C174.619 27.7021 175.754 26.1854 176.616 24.3118C177.479 22.3937 177.887 20.3417 177.887 18.0666C177.887 16.3269 177.615 14.6317 177.116 13.0704C176.571 11.5091 175.89 10.1262 174.937 8.96639C174.029 7.80655 172.94 6.91438 171.714 6.24524C170.489 5.57611 169.172 5.21924 167.765 5.21924C166.358 5.21924 165.042 5.57611 163.816 6.24524C162.59 6.91438 161.501 7.85116 160.593 8.96639C159.685 10.1262 158.959 11.4645 158.415 13.0704C157.87 14.6317 157.643 16.2822 157.643 18.0666C157.643 19.851 157.915 21.5015 158.415 23.0628C158.959 24.6241 159.64 26.007 160.593 27.1668C161.501 28.3266 162.59 29.2188 163.816 29.888C165.042 30.5571 166.358 30.914 167.765 30.914H168.264Z" fill="#8028FF"/>
<path d="M234.444 22.7951C234.399 22.8843 234.263 23.2858 234.036 23.9995C233.809 24.6687 233.4 25.5162 232.901 26.5422C232.402 27.5236 231.766 28.5942 230.995 29.7541C230.223 30.9139 229.361 31.9399 228.317 32.9213C227.318 33.9027 226.138 34.7057 224.867 35.3302C223.596 35.9547 222.143 36.267 220.555 36.267C218.648 36.267 216.878 35.5978 215.199 34.3042C213.519 33.0105 211.976 31.3154 210.478 29.2188C209.207 30.7355 208.027 31.9399 206.983 32.8767C205.894 33.8135 204.94 34.5272 204.032 35.0179C203.125 35.5086 202.308 35.8655 201.627 35.9993C200.901 36.1331 200.265 36.2224 199.72 36.2224V30.9139C200.719 30.9139 201.854 30.334 203.215 29.1295C204.577 27.9251 206.03 26.3638 207.573 24.3564C206.438 22.2152 205.44 20.0293 204.532 17.7543C203.624 15.4792 202.852 13.2934 202.171 11.2414C201.491 9.18937 200.9 7.36041 200.447 5.75449C199.993 4.14857 199.675 2.89952 199.448 2.09656L204.713 0.847509C205.076 2.27499 205.485 3.74709 205.939 5.3084C206.393 6.86971 206.938 8.47563 207.482 10.0369C208.027 11.6429 208.617 13.2042 209.252 14.7655C209.888 16.3268 210.523 17.8435 211.204 19.271C212.974 16.5052 214.79 13.5164 216.56 10.26C218.331 7.00354 219.965 3.70248 221.417 0.356812L226.319 2.54265C226.274 2.63186 226.047 3.12256 225.593 4.10396C225.139 5.08535 224.549 6.28979 223.823 7.8065C223.051 9.3232 222.189 11.0629 221.145 12.9811C220.101 14.8993 219.011 16.8621 217.786 18.8695C217.105 19.9847 216.424 21.0107 215.834 21.9921C215.199 22.9735 214.609 23.8657 214.018 24.7133C215.153 26.5868 216.243 28.0589 217.377 29.2188C218.512 30.3786 219.602 30.9139 220.646 30.9139C221.553 30.9139 222.416 30.6909 223.187 30.2002C223.959 29.7541 224.685 29.1295 225.321 28.4158C225.956 27.7021 226.546 26.8991 227.046 26.0961C227.545 25.2486 227.954 24.4902 228.317 23.7765C228.634 23.0627 228.907 22.4828 229.088 21.9921C229.27 21.5014 229.361 21.2338 229.361 21.2338L234.444 22.7951Z" fill="#2AD2C9"/>
</g>
<defs>
<clipPath id="clip0_151_1553">
<rect width="234.444" height="42.2" fill="white"/>
</clipPath>
</defs>
</svg>
